<svg xmlns="http://www.w3.org/2000/svg" xmlns:xlink="http://www.w3.org/1999/xlink" width="489" zoomAndPan="magnify" viewBox="0 0 366.75 382.499989" height="510" preserveAspectRatio="xMidYMid meet" version="1.0"><defs><clipPath id="ffb7fb8690"><path d="M 4.335938 38.945312 L 362.613281 38.945312 L 362.613281 343.257812 L 4.335938 343.257812 Z M 4.335938 38.945312 " clip-rule="nonzero"/></clipPath><clipPath id="fd7c57bf93"><path d="M 21.699219 29.457031 L 344.75 29.457031 L 344.75 352.503906 L 21.699219 352.503906 Z M 21.699219 29.457031 " clip-rule="nonzero"/></clipPath></defs><g clip-path="url(#ffb7fb8690)"><path fill="#ffffff" d="M 147.648438 343.257812 L 147.648438 235.855469 L 219.300781 235.855469 L 219.300781 343.257812 L 308.867188 343.257812 L 308.867188 200.050781 L 362.605469 200.050781 L 183.472656 38.945312 L 4.339844 200.050781 L 58.082031 200.050781 L 58.082031 343.257812 Z M 147.648438 343.257812 " fill-opacity="1" fill-rule="nonzero"/></g><path fill="#000000" d="M 186.148438 194.640625 L 152.570312 194.640625 L 152.570312 133.003906 L 186.148438 133.003906 C 211.335938 133.003906 224.367188 144.269531 224.367188 163.714844 C 224.367188 183.148438 211.335938 194.640625 186.148438 194.640625 Z M 253.3125 163.714844 C 253.3125 129.46875 228.125 108.703125 187.476562 108.703125 L 123.855469 108.703125 L 123.855469 263.34375 L 152.570312 263.34375 L 152.570312 218.277344 L 187.476562 218.277344 C 189.464844 218.277344 191.453125 218.277344 193.441406 218.050781 L 225.035156 263.34375 L 255.960938 263.34375 L 220.390625 212.527344 C 241.378906 204.355469 253.3125 187.125 253.3125 163.714844 " fill-opacity="1" fill-rule="nonzero"/><g clip-path="url(#fd7c57bf93)"><path fill="#000000" d="M 183.226562 324.480469 C 109.609375 324.480469 49.726562 264.59375 49.726562 190.980469 C 49.726562 117.367188 109.609375 57.476562 183.226562 57.476562 C 256.839844 57.476562 316.726562 117.367188 316.726562 190.980469 C 316.726562 264.59375 256.839844 324.480469 183.226562 324.480469 Z M 183.226562 29.457031 C 94.160156 29.457031 21.699219 101.914062 21.699219 190.980469 C 21.699219 280.046875 94.160156 352.503906 183.226562 352.503906 C 272.289062 352.503906 344.75 280.046875 344.75 190.980469 C 344.75 101.914062 272.289062 29.457031 183.226562 29.457031 " fill-opacity="1" fill-rule="nonzero"/></g></svg>